<svg width="3840" xmlns="http://www.w3.org/2000/svg" height="1556" viewBox="9589 3631 3840 1556" fill="none"><path d="M13223.506,3689.817L13429.000,3689.817L13429.000,5185.662L13189.587,5185.662L11746.965,3998.054L11748.028,3801.412L13223.726,4988.266L13223.506,3689.817ZM11684.289,3778.084L11684.008,3969.785C11684.008,3969.785,11281.516,3844.418,10835.347,3811.870C10432.820,3782.506,10188.469,3853.911,10188.469,3853.911C10188.469,3853.911,10123.375,3870.185,10018.952,3928.500C9964.549,3958.881,9928.838,3996.854,9896.900,4035.636C9782.984,4173.964,9792.477,4381.455,9792.477,4381.455C9792.477,4381.455,9793.090,4530.619,9806.038,4587.591C9819.600,4647.261,9873.845,4759.822,9873.845,4759.822C9873.845,4759.822,9909.221,4819.688,10014.884,4885.945C10129.820,4958.016,10192.538,4964.601,10192.538,4964.601C10192.538,4964.601,10412.068,5028.874,10815.005,5012.067C11257.394,4993.614,11475.444,4908.999,11475.444,4908.999L11475.444,4381.453L11681.577,4381.453L11681.577,5050.349C11681.577,5050.349,11454.564,5134.120,10989.947,5172.093C10527.869,5209.859,10291.536,5163.956,10291.536,5163.956C10291.536,5163.956,9948.433,5135.477,9753.149,4910.355C9714.772,4866.115,9585.917,4719.298,9589.056,4385.524C9593.125,3952.911,9872.751,3801.295,9899.612,3788.816C10071.841,3708.803,10115.238,3672.187,10490.888,3634.214C10507.303,3632.555,10714.461,3620.469,11091.657,3657.269C11314.064,3678.967,11684.289,3778.084,11684.289,3778.084Z" style="fill: rgb(0, 0, 0); fill-opacity: 1;" class="fills"/></svg>