<svg width="3840" xmlns="http://www.w3.org/2000/svg" height="1556" viewBox="5000 3514 3840 1556" fill="none"><path d="M8634.506,3572.817L8840.000,3572.817L8840.000,5068.662L8600.587,5068.662L7157.965,3881.054L7159.028,3684.412L8634.726,4871.266L8634.506,3572.817ZM7095.289,3661.084L7095.008,3852.785C7095.008,3852.785,6692.516,3727.418,6246.347,3694.870C5843.820,3665.506,5599.469,3736.911,5599.469,3736.911C5599.469,3736.911,5534.375,3753.185,5429.952,3811.500C5375.549,3841.881,5339.838,3879.854,5307.900,3918.636C5193.984,4056.964,5203.477,4264.455,5203.477,4264.455C5203.477,4264.455,5204.090,4413.619,5217.038,4470.591C5230.600,4530.261,5284.845,4642.822,5284.845,4642.822C5284.845,4642.822,5320.221,4702.688,5425.884,4768.945C5540.820,4841.016,5603.538,4847.601,5603.538,4847.601C5603.538,4847.601,5823.068,4911.874,6226.005,4895.067C6668.394,4876.614,6886.444,4791.999,6886.444,4791.999L6886.444,4264.453L7092.577,4264.453L7092.577,4933.349C7092.577,4933.349,6865.564,5017.120,6400.947,5055.093C5938.869,5092.859,5702.536,5046.956,5702.536,5046.956C5702.536,5046.956,5359.433,5018.477,5164.149,4793.355C5125.772,4749.115,4996.917,4602.298,5000.056,4268.524C5004.125,3835.911,5283.751,3684.295,5310.612,3671.816C5482.841,3591.803,5526.238,3555.187,5901.888,3517.214C5918.303,3515.555,6125.461,3503.469,6502.657,3540.269C6725.064,3561.967,7095.289,3661.084,7095.289,3661.084Z" style="fill: rgb(255, 255, 255); fill-opacity: 1;" class="fills"/></svg>